<svg width="21" height="14" viewBox="0 0 21 14" fill="none" xmlns="http://www.w3.org/2000/svg">
<path fill-rule="evenodd" clip-rule="evenodd" d="M0.4375 7C0.4375 6.80109 0.513225 6.61032 0.648017 6.46967C0.782809 6.32902 0.965626 6.25 1.15625 6.25H18.1087L13.5849 1.531C13.4499 1.39017 13.3741 1.19916 13.3741 1C13.3741 0.800838 13.4499 0.609831 13.5849 0.469001C13.7198 0.328171 13.9029 0.249054 14.0938 0.249054C14.2846 0.249054 14.4677 0.328171 14.6026 0.469001L20.3526 6.469C20.4196 6.53867 20.4727 6.62143 20.5089 6.71255C20.5451 6.80367 20.5638 6.90135 20.5638 7C20.5638 7.09865 20.5451 7.19633 20.5089 7.28745C20.4727 7.37857 20.4196 7.46133 20.3526 7.531L14.6026 13.531C14.4677 13.6718 14.2846 13.7509 14.0938 13.7509C13.9029 13.7509 13.7198 13.6718 13.5849 13.531C13.4499 13.3902 13.3741 13.1992 13.3741 13C13.3741 12.8008 13.4499 12.6098 13.5849 12.469L18.1087 7.75H1.15625C0.965626 7.75 0.782809 7.67098 0.648017 7.53033C0.513225 7.38968 0.4375 7.19891 0.4375 7Z" fill="#1A0B2E"/>
</svg>
