<svg width="70" height="70" viewBox="0 0 70 70" fill="none" xmlns="http://www.w3.org/2000/svg">
<g clip-path="url(#clip0_18_146)">
<path fill-rule="evenodd" clip-rule="evenodd" d="M35 10.5875L31.8631 7.36313C26.9194 2.28376 17.675 3.96376 14.3194 10.5131C12.7881 13.51 12.3462 17.9813 15.3519 23.9094C18.2 29.5444 24.15 36.4 35 43.9338C45.8456 36.3956 51.7956 29.54 54.6481 23.9094C57.6537 17.9813 57.2162 13.51 55.6806 10.5175C52.325 3.96376 43.0806 2.28376 38.1369 7.36313L35 10.5875ZM32.8562 47.775C-14.3063 15.225 19.7312 -9.77812 34.4269 3.74938C34.6252 3.93021 34.8177 4.11834 35.0044 4.31376C35.1939 4.11834 35.3864 3.93021 35.5819 3.74938C50.2819 -9.77812 84.3062 15.2294 37.1437 47.775L38.1719 49.8225C38.2362 49.9512 38.2746 50.0913 38.2848 50.2348C38.295 50.3784 38.2768 50.5225 38.2313 50.659C38.1858 50.7955 38.1139 50.9217 38.0196 51.0304C37.9253 51.1391 37.8106 51.2282 37.6819 51.2925C37.5532 51.3569 37.4131 51.3952 37.2695 51.4054C37.126 51.4156 36.9819 51.3975 36.8454 51.352C36.7089 51.3064 36.5827 51.2345 36.474 51.1402C36.3653 51.046 36.2762 50.9312 36.2119 50.8025L36.1769 50.7281C36.2119 51.2094 36.2644 51.6119 36.3387 51.9969C36.575 53.1781 37.0431 54.1319 38.1719 56.385C39.4319 58.9138 39.2 61.4163 38.5044 63.5119C37.8175 65.5638 36.6581 67.305 35.9319 68.39L35.9144 68.4206C35.8345 68.5401 35.7319 68.6427 35.6124 68.7226C35.4929 68.8024 35.3588 68.8579 35.2178 68.886C35.0769 68.914 34.9317 68.914 34.7908 68.886C34.6498 68.8579 34.5157 68.8024 34.3962 68.7225C34.2767 68.6426 34.1741 68.54 34.0943 68.4205C34.0144 68.301 33.9589 68.1669 33.9309 68.026C33.9029 67.885 33.9029 67.7399 33.9309 67.5989C33.959 67.4579 34.0145 67.3239 34.0944 67.2044C34.8294 66.1019 35.8444 64.5794 36.4262 62.8163C37.0081 61.0838 37.1394 59.2113 36.2119 57.365L36.155 57.2425C35.105 55.1425 34.4925 53.9263 34.195 52.4213C34.0696 51.7717 33.9936 51.1135 33.9675 50.4525L33.7925 50.8025C33.7288 50.9321 33.6401 51.0477 33.5316 51.1428C33.423 51.2379 33.2966 51.3106 33.1598 51.3567C33.023 51.4027 32.8785 51.4212 32.7345 51.4112C32.5905 51.4011 32.4499 51.3626 32.3209 51.2979C32.1918 51.2333 32.0768 51.1437 31.9826 51.0344C31.8883 50.925 31.8166 50.7982 31.7716 50.661C31.7266 50.5238 31.7092 50.3791 31.7204 50.2352C31.7316 50.0913 31.7712 49.951 31.8369 49.8225L32.865 47.775H32.8562ZM26.3069 9.0125C23.4675 8.22501 19.8187 9.37563 18.2131 12.5038C17.64 13.6325 17.1412 15.5181 17.8631 18.3444C18.1387 19.4119 19.6744 19.2106 19.9937 18.1563C20.9125 15.1069 22.7369 11.8256 25.9394 10.7538C26.8887 10.4344 27.2694 9.27938 26.3069 9.0125Z" fill="black"/>
</g>
<defs>
<clipPath id="clip0_18_146">
<rect width="70" height="70" fill="white"/>
</clipPath>
</defs>
</svg>
