<svg width="28" height="28" viewBox="0 0 28 28" fill="none" xmlns="http://www.w3.org/2000/svg">
<path fill-rule="evenodd" clip-rule="evenodd" d="M10.9325 3.6875C10.9325 3.43886 11.0313 3.2004 11.2071 3.02459C11.3829 2.84877 11.6214 2.75 11.87 2.75H24.3125C25.0584 2.75 25.7738 3.04632 26.3012 3.57376C26.8287 4.10121 27.125 4.81658 27.125 5.5625V24.3125C27.125 25.0584 26.8287 25.7738 26.3012 26.3012C25.7738 26.8287 25.0584 27.125 24.3125 27.125H5.5625C4.81658 27.125 4.10121 26.8287 3.57376 26.3012C3.04632 25.7738 2.75 25.0584 2.75 24.3125V11.87C2.75 11.6214 2.84877 11.3829 3.02459 11.2071C3.2004 11.0313 3.43886 10.9325 3.6875 10.9325C3.93614 10.9325 4.1746 11.0313 4.35041 11.2071C4.52623 11.3829 4.625 11.6214 4.625 11.87V24.3125C4.625 24.5611 4.72377 24.7996 4.89959 24.9754C5.0754 25.1512 5.31386 25.25 5.5625 25.25H24.3125C24.5611 25.25 24.7996 25.1512 24.9754 24.9754C25.1512 24.7996 25.25 24.5611 25.25 24.3125V5.5625C25.25 5.31386 25.1512 5.0754 24.9754 4.89959C24.7996 4.72377 24.5611 4.625 24.3125 4.625H11.87C11.6214 4.625 11.3829 4.52623 11.2071 4.35041C11.0313 4.1746 10.9325 3.93614 10.9325 3.6875Z" fill="white"/>
<path fill-rule="evenodd" clip-rule="evenodd" d="M19.625 18.6875C19.625 18.9361 19.5262 19.1746 19.3504 19.3504C19.1746 19.5262 18.9361 19.625 18.6875 19.625H9.3125C9.06386 19.625 8.8254 19.5262 8.64959 19.3504C8.47377 19.1746 8.375 18.9361 8.375 18.6875C8.375 18.4389 8.47377 18.2004 8.64959 18.0246C8.8254 17.8488 9.06386 17.75 9.3125 17.75H16.4244L1.14875 2.47625C0.972712 2.30021 0.873816 2.06145 0.873816 1.8125C0.873816 1.56355 0.972712 1.32479 1.14875 1.14875C1.32479 0.972712 1.56355 0.873816 1.8125 0.873816C2.06145 0.873816 2.30021 0.972712 2.47625 1.14875L17.75 16.4244V9.3125C17.75 9.06386 17.8488 8.8254 18.0246 8.64959C18.2004 8.47377 18.4389 8.375 18.6875 8.375C18.9361 8.375 19.1746 8.47377 19.3504 8.64959C19.5262 8.8254 19.625 9.06386 19.625 9.3125V18.6875Z" fill="white"/>
</svg>
