<svg width="20" height="30" viewBox="0 0 20 30" fill="none" xmlns="http://www.w3.org/2000/svg">
<path d="M3 26.99V3.01003L16.7025 15L3 26.99ZM4.6475 28.8725L18.3475 16.8825C18.616 16.6479 18.8312 16.3585 18.9787 16.0338C19.1262 15.7091 19.2025 15.3566 19.2025 15C19.2025 14.6434 19.1262 14.2909 18.9787 13.9663C18.8312 13.6416 18.616 13.3522 18.3475 13.1175L4.65 1.12753C3.0275 -0.287473 0.500001 0.862527 0.500001 3.01003V26.99C0.499589 27.4706 0.63772 27.9412 0.897852 28.3453C1.15799 28.7494 1.52909 29.07 1.96673 29.2687C2.40437 29.4673 2.89 29.5356 3.36544 29.4653C3.84089 29.3951 4.28601 29.1892 4.6475 28.8725Z" fill="white"/>
</svg>
