<svg width="20" height="30" viewBox="0 0 20 30" fill="none" xmlns="http://www.w3.org/2000/svg">
<path d="M17 26.99V3.01003L3.2975 15L17 26.99ZM15.3525 28.8725L1.6525 16.8825C1.38398 16.6479 1.16876 16.3585 1.0213 16.0338C0.87384 15.7091 0.797548 15.3566 0.797548 15C0.797548 14.6434 0.87384 14.2909 1.0213 13.9663C1.16876 13.6416 1.38398 13.3522 1.6525 13.1175L15.35 1.12753C16.9725 -0.287473 19.5 0.862527 19.5 3.01003V26.99C19.5004 27.4706 19.3623 27.9412 19.1021 28.3453C18.842 28.7494 18.4709 29.07 18.0333 29.2687C17.5956 29.4673 17.11 29.5356 16.6346 29.4653C16.1591 29.3951 15.714 29.1893 15.3525 28.8725Z" fill="white"/>
</svg>
